<?xml version="1.0" encoding="UTF-8" standalone="yes"?>

<svg width="100mm"
     height="100mm"
     viewBox="0 0 100 100"
     version="1.1"
     id="svg5"
     xml:space="preserve"
     xmlns="http://www.w3.org/2000/svg"
     xmlns:svg="http://www.w3.org/2000/svg">
    <g id="layer1">
        <path style="fill:#000000;stroke-width:0.274099"
              d="m 24.529132,99.59359 -1.644596,-0.4661 -1.162146,-0.73928 -1.162156,-0.7393 -0.691,-1.04417 C 19.48918,96.03044 18.913121,94.8286 18.589112,93.93398 L 18,92.30739 l 0.01481,-3.28918 0.01481,-3.28917 0.552822,-2.60393 c 0.634964,-2.990823 1.840621,-7.58304 2.283372,-8.697164 0.165951,-0.417575 0.398121,-1.129249 0.515942,-1.581519 0.11782,-0.452259 0.587548,-1.809046 1.043849,-3.01507 0.456302,-1.206035 1.130622,-2.994528 1.498483,-3.974422 0.367871,-0.979905 1.610419,-3.841364 2.761211,-6.358811 1.150782,-2.517457 2.092339,-4.694477 2.092339,-4.837843 0,-0.702713 -3.438141,-8.478635 -4.192822,-9.48275 l -0.400753,-0.533199 -1.562464,1.49254 c -0.859364,0.820905 -1.827256,1.591412 -2.150892,1.712256 l -0.588408,0.219707 -0.623164,-0.156409 c -0.878012,-0.22036 -0.805153,-0.397623 0.815854,-1.985015 l 1.439018,-1.409187 1.549981,-0.842754 1.54997,-0.842764 h 1.265577 1.265577 l 0.747739,1.185533 c 0.719002,1.139971 2.054351,3.915849 2.363483,4.913147 l 0.148693,0.479671 h 0.372895 0.372896 l 0.663577,-1.430123 c 1.416238,-3.052221 3.771817,-5.933502 5.455468,-6.67295 l 0.954487,-0.419202 0.800056,0.08112 0.800044,0.08112 0.510235,0.686717 0.510223,0.686723 0.26906,1.643117 0.269052,1.643117 0.0021,3.768846 0.0021,3.768846 h 0.400586 0.400587 l 0.265136,-1.02787 c 0.145822,-0.565324 0.638579,-2.532313 1.095005,-4.371081 l 0.82986,-3.343211 0.699629,-1.380646 0.699629,-1.380641 1.083061,-0.55254 1.08305,-0.552529 h 0.67375 c 0.370565,0 0.873423,0.07666 1.117455,0.17026 l 0.443704,0.17027 0.417846,0.808008 c 0.536102,1.036723 1.116244,4.10557 1.33735,7.074406 0.206975,2.778954 0.351067,3.56328 0.654647,3.56328 h 0.226866 l 0.74979,-3.08361 c 1.559895,-6.415291 2.02263,-7.522002 3.529131,-8.440578 l 0.87593,-0.53408 0.875536,-10e-4 0.875536,-0.001 0.713158,0.616718 0.713159,0.616718 0.388964,2.192782 0.388963,2.192787 0.0093,3.61396 0.0093,3.613959 0.26732,0.703086 c 0.434536,1.142914 0.636725,0.894801 2.721864,-3.339865 1.094902,-2.223617 2.103694,-4.257115 2.241767,-4.518892 0.409559,-0.776494 0.31307,-1.255729 -1.090602,-5.417158 -1.138184,-3.374321 -1.99964,-6.3585 -3.323252,-11.512114 -0.296152,-1.153108 -1.207895,-6.14417 -1.677374,-9.18228 l -0.338853,-2.192788 0.01057,-3.56327 0.01057,-3.56327 0.577121,-2.121976 0.577148,-2.121896 1.083568,-1.595629 1.083568,-1.595618 0.938646,-0.715931 c 0.516262,-0.393769 1.716945,-1.03219 2.66819,-1.418707 L 69.423944,0.353667 71.544307,0.176839 73.664669,0 l 1.90629,0.579019 1.906291,0.579019 1.221829,1.075494 1.221839,1.075493 0.612296,1.191665 c 0.336762,0.655411 0.792576,1.870055 1.012936,2.699196 l 0.40065,1.507541 0.0031,2.368082 0.0031,2.368071 -0.43149,2.291598 c -1.415264,7.516268 -4.497385,16.080421 -9.57515,26.606063 -0.993605,2.05964 -0.698417,3.285793 2.312348,9.605143 l 0.881482,1.850164 h 0.450417 0.450428 l 1.283241,-1.263944 1.283239,-1.263935 1.261599,-0.142206 1.261589,-0.142196 v 0.528216 0.528215 l -1.027875,0.972747 c -0.565326,0.535001 -1.597956,1.371332 -2.294726,1.858503 l -1.266851,0.885767 -1.177427,0.264554 -1.177416,0.264553 -0.759395,-0.1668 -0.759403,-0.16679 -0.816227,-1.283918 C 71.402462,53.963162 70.63823,52.491155 70.153108,51.398185 69.064837,48.946387 69.154106,48.936007 67.796369,51.67229 l -1.122054,2.261306 -1.154169,1.459223 -1.154179,1.459223 -1.264759,0.802082 -1.264758,0.802083 h -0.609168 c -0.335043,0 -0.808831,-0.07666 -1.052873,-0.17026 l -0.443704,-0.170271 -0.446708,-0.857599 -0.446698,-0.8576 -0.175752,-5.278552 -0.175752,-5.278551 -0.317772,-0.317771 -0.317762,-0.31776 -0.10689,0.388454 c -0.05874,0.213646 -0.305673,1.251865 -0.548638,2.307136 -0.242954,1.055282 -0.705606,3.028787 -1.028103,4.385575 l -0.586345,2.466881 -0.678828,1.264525 -0.678826,1.264515 -1.042006,0.585639 -1.042015,0.585639 h -0.833548 -0.833548 l -0.792349,-0.961248 -0.792348,-0.961247 -0.331322,-1.71121 c -0.182226,-0.94116 -0.509322,-3.177333 -0.726885,-4.969266 -0.217553,-1.791932 -0.4473,-3.309801 -0.510545,-3.373047 -0.122119,-0.122119 -0.743616,1.891996 -1.28495,4.164231 -0.550843,2.312109 -1.312713,4.737138 -1.760022,5.602124 l -0.425824,0.823454 -1.020001,0.69311 -1.020001,0.693099 h -0.980376 -0.980386 l -0.470671,-0.344167 -0.47068,-0.344167 -0.384147,-1.456209 -0.384145,-1.456208 -0.07003,-4.0242 c -0.06464,-3.717473 -0.317212,-6.2447 -0.658118,-6.585603 -0.2794,-0.279389 -2.7629,4.265216 -4.5243,8.279098 l -0.584585,1.332132 1.394275,4.286868 c 1.872778,5.758129 1.766176,5.386561 2.881435,10.042935 1.247199,5.207267 1.395425,5.923034 1.986671,9.593432 l 0.485682,3.015071 -0.0021,4.659671 -0.0021,4.65967 -0.633814,1.97485 -0.633814,1.97486 -0.821242,1.23985 c -2.455621,3.70729 -7.877379,5.57876 -12.426677,4.28943 z m 6.354965,-1.40991 c 1.874984,-0.70689 3.256434,-2.69925 4.197587,-6.05384 l 0.565389,-2.01524 -0.0083,-4.50805 -0.0083,-4.508052 -0.302907,-1.659154 C 34.123651,72.845588 32.693044,66.728437 31.15736,61.608418 l -0.657704,-2.192787 -0.449339,-0.08857 -0.44934,-0.08857 v 0.298627 c 0,0.164251 -0.629826,1.807606 -1.399611,3.651896 -3.547674,8.499665 -4.325094,10.95369 -6.555683,20.693896 l -0.267683,1.16886 0.01212,3.07966 0.01212,3.07967 0.339993,1.23344 c 0.467988,1.69778 1.054997,2.71783 2.29483,3.98772 l 1.057462,1.08309 1.225381,0.45949 1.225372,0.45949 1.284131,0.0202 1.284131,0.0202 0.771619,-0.29091 z M 70.075142,39.474996 c 0.137337,-0.188441 0.574028,-1.082682 0.970409,-1.987211 0.396391,-0.904518 0.980614,-2.235717 1.298282,-2.958207 0.317669,-0.722489 0.770977,-1.832583 1.007342,-2.466881 0.236366,-0.634288 0.537729,-1.399946 0.6697,-1.701452 1.201586,-2.745213 3.520399,-10.84768 4.235909,-14.80129 l 0.396847,-2.192787 -0.0031,-1.781635 -0.0031,-1.781635 L 78.148587,7.977768 77.649749,6.151639 76.829544,5.036344 C 75.748918,3.566927 74.963884,2.975901 73.377385,2.437336 l -1.311543,-0.445235 -0.881244,0.0062 c -0.484686,0.0041 -1.35756,0.117063 -1.939721,0.252142 L 68.18641,2.496039 67.368816,3.271766 66.551211,4.047504 65.798458,5.555044 C 65.384444,6.384186 64.87188,7.679303 64.659436,8.433068 l -0.38626,1.370493 0.0062,4.385564 0.0062,4.385564 0.345464,1.918692 c 0.930607,5.168409 2.411002,11.494742 3.634259,15.530565 0.472442,1.558696 0.922973,3.049848 1.001178,3.313666 0.167319,0.564453 0.461243,0.614242 0.809027,0.137047 z"
              id="path197"/>
    </g>
</svg>
